<svg xmlns="http://www.w3.org/2000/svg" version="1.1" xmlns:xlink="http://www.w3.org/1999/xlink" xmlns:svgjs="http://svgjs.dev/svgjs" width="1500" height="363" viewBox="0 0 1500 363"><g transform="matrix(1,0,0,1,-0.9090909090909918,-0.05519999999998504)"><svg viewBox="0 0 396 96" data-background-color="#ffffff" preserveAspectRatio="xMidYMid meet" height="363" width="1500" xmlns="http://www.w3.org/2000/svg" xmlns:xlink="http://www.w3.org/1999/xlink"><g id="tight-bounds" transform="matrix(1,0,0,1,0.2400000000000091,0.014598347107437348)"><svg viewBox="0 0 395.52 95.97080330578513" height="95.97080330578513" width="395.52"><g><svg viewBox="0 0 395.52 95.97080330578513" height="95.97080330578513" width="395.52"><g><svg viewBox="0 0 395.52 95.97080330578513" height="95.97080330578513" width="395.52"><g id="textblocktransform"><svg viewBox="0 0 395.52 95.97080330578513" height="95.97080330578513" width="395.52" id="textblock"><g><svg viewBox="0 0 395.52 95.97080330578513" height="95.97080330578513" width="395.52"><g transform="matrix(1,0,0,1,0,0)"><svg width="395.52" viewBox="1.65 -36.5 151.23999999999998 36.7" height="95.97080330578513" data-palette-color="#3b82f6"><g class="wordmark-text-0" data-fill-palette-color="primary" id="text-0"><path d="M12.15-22.65L12.7-22.55 20.2-33.15Q22.2-36 24.55-36.38 26.9-36.75 28.8-35.25L28.8-35.25Q30.05-34.3 30.45-32.7 30.85-31.1 30.2-29.3 29.55-27.5 27.6-25.9L27.6-25.9 19.25-19.15 19.25-18.1Q20.85-18.1 23-17.7 25.15-17.3 26.9-15.9L26.9-15.9Q28.3-14.85 29.33-13.5 30.35-12.15 30.95-10.18 31.55-8.2 31.55-5.2L31.55-5.2Q31.55-2.75 30.23-1.28 28.9 0.2 26.3 0.2L26.3 0.2Q23.7 0.2 22.33-1.28 20.95-2.75 20.95-5.2L20.95-5.2Q20.95-7.95 20.08-9.58 19.2-11.2 17.75-11.95 16.3-12.7 14.6-12.7L14.6-12.7 12.15-12.7 12.15-4.85Q12.15-2.7 10.68-1.3 9.2 0.1 6.9 0.1L6.9 0.1Q4.6 0.1 3.13-1.3 1.65-2.7 1.65-4.85L1.65-4.85 1.65-31.3Q1.65-33.5 3.1-35 4.55-36.5 6.9-36.5L6.9-36.5Q9.4-36.5 10.78-35.02 12.15-33.55 12.15-31.4L12.15-31.4 12.15-22.65ZM33.4-13L33.4-13Q33.4-16.95 34.97-19.95 36.55-22.95 39.47-24.65 42.4-26.35 46.45-26.35L46.45-26.35Q49.6-26.35 52.12-25.2 54.65-24.05 56.1-22.13 57.55-20.2 57.55-17.9L57.55-17.9Q57.55-15.5 56.15-14.5 54.75-13.5 52-13.5L52-13.5 41.5-13.5Q41.5-12.2 42.52-11.35 43.55-10.5 46-10.5L46-10.5Q47.25-10.5 48.32-10.75 49.4-11 50.52-11.23 51.65-11.45 53.05-11.45L53.05-11.45Q55.05-11.45 56.35-10.03 57.65-8.6 57.65-6.1L57.65-6.1Q57.65-3.15 54.62-1.5 51.6 0.15 46.7 0.15L46.7 0.15Q43.25 0.15 40.22-1.2 37.2-2.55 35.3-5.48 33.4-8.4 33.4-13ZM41.65-15.15L49.6-15.15Q50.35-15.15 50.1-15.85L50.1-15.85Q49.9-16.55 48.9-17.3 47.9-18.05 46-18.05L46-18.05Q43.8-18.05 42.72-17.1 41.65-16.15 41.65-15.15L41.65-15.15ZM64.75 0L64.75 0Q62.55 0 61.22-1.33 59.9-2.65 59.9-4.6L59.9-4.6 59.9-21.15Q59.9-23.25 61.15-24.7 62.4-26.15 64.75-26.15L64.75-26.15Q67.05-26.15 68.25-24.7 69.45-23.25 69.45-21.05L69.45-21.05 69.45-18.55 70.34-18.55Q70.34-21.4 71.37-23.05 72.4-24.7 74-25.43 75.59-26.15 77.2-26.15L77.2-26.15Q81.05-26.15 82.84-23.38 84.65-20.6 84.65-15.5L84.65-15.5 84.65-4.6Q84.65-2.65 83.34-1.33 82.05 0 79.84 0L79.84 0Q77.59 0 76.27-1.33 74.95-2.65 74.95-4.6L74.95-4.6 74.95-13.45Q74.95-15.25 74.27-16.25 73.59-17.25 72.3-17.25L72.3-17.25Q70.8-17.25 70.12-16.15 69.45-15.05 69.45-13.35L69.45-13.35 69.45-4.6Q69.45-2.65 68.2-1.33 66.95 0 64.75 0ZM91.94 0L91.94 0Q89.69 0 88.37-1.33 87.04-2.65 87.04-4.6L87.04-4.6 87.04-21.15Q87.04-23.25 88.32-24.7 89.59-26.15 91.94-26.15L91.94-26.15Q94.24-26.15 95.39-24.7 96.54-23.25 96.54-21.05L96.54-21.05 96.54-18.55 97.44-18.55Q97.44-22.8 99.24-24.48 101.04-26.15 103.69-26.15L103.69-26.15Q107.09-26.15 108.69-24.05 110.29-21.95 110.29-18.55L110.29-18.55 111.19-18.55Q111.19-21.4 112.14-23.05 113.09-24.7 114.57-25.43 116.04-26.15 117.64-26.15L117.64-26.15Q120.89-26.15 122.42-24.6 123.94-23.05 124.39-20.45 124.84-17.85 124.84-14.6L124.84-14.6 124.84-4.6Q124.84-2.65 123.52-1.33 122.19 0 119.99 0L119.99 0Q117.79 0 116.44-1.33 115.09-2.65 115.09-4.6L115.09-4.6 115.09-13.45Q115.09-15.25 114.64-16.25 114.19-17.25 112.84-17.25L112.84-17.25Q111.39-17.25 110.97-16.15 110.54-15.05 110.54-13.35L110.54-13.35 110.54-4.6Q110.54-2.65 109.29-1.33 108.04 0 105.84 0L105.84 0Q103.59 0 102.27-1.33 100.94-2.65 100.94-4.6L100.94-4.6 100.94-13.45Q100.94-15.25 100.49-16.25 100.04-17.25 98.74-17.25L98.74-17.25Q97.29-17.25 96.92-16.15 96.54-15.05 96.54-13.35L96.54-13.35 96.54-4.6Q96.54-2.65 95.34-1.33 94.14 0 91.94 0ZM140.04 0.1L140.04 0.1Q134.19 0.1 130.72-3.38 127.24-6.85 127.24-13.2L127.24-13.2Q127.24-17.1 128.84-20.05 130.44-23 133.32-24.68 136.19-26.35 140.04-26.35L140.04-26.35Q144.34-26.35 147.19-24.68 150.04-23 151.47-20.05 152.89-17.1 152.89-13.2L152.89-13.2Q152.89-6.85 149.72-3.38 146.54 0.1 140.04 0.1ZM133.19-14.05L133.19-14.05Q133.19-12.5 134.74-11.88 136.29-11.25 140.04-11.25L140.04-11.25Q143.79-11.25 145.34-11.88 146.89-12.5 146.89-14.05L146.89-14.05Q146.89-15.55 145.34-16.15 143.79-16.75 140.04-16.75L140.04-16.75Q136.29-16.75 134.74-16.15 133.19-15.55 133.19-14.05Z" fill="#3b82f6" data-fill-palette-color="primary"></path></g></svg></g></svg></g></svg></g></svg></g></svg></g><defs></defs></svg><rect width="395.52" height="95.97080330578513" fill="none" stroke="none" visibility="hidden"></rect></g></svg></g></svg>